/* XPM */
static char *result[] = {
/* columns rows colors chars-per-pixel */
"32 32 106 2 ",
"   c #181425",
".  c #563F3B",
"X  c #513E3F",
"o  c #553F3C",
"O  c #5B423F",
"+  c #5C423F",
"@  c #5D433F",
"#  c #4B3D46",
"$  c #4B3E46",
"%  c #4C3E46",
"&  c #4D3E46",
"*  c #4C3E47",
"=  c #4E3E46",
"-  c #4F3F47",
";  c #4F3F48",
":  c #503F45",
">  c #513F45",
",  c #503F47",
"<  c #514045",
"1  c #524045",
"2  c #504047",
"3  c #514047",
"4  c #524046",
"5  c #534046",
"6  c #534146",
"7  c #524147",
"8  c #544146",
"9  c #544147",
"0  c #554147",
"q  c #554247",
"w  c #594240",
"e  c #5D4442",
"r  c #504048",
"t  c #514048",
"y  c #524148",
"u  c #534148",
"i  c #564248",
"p  c #574248",
"a  c #584449",
"s  c #594449",
"d  c #5B4549",
"f  c #5B454A",
"g  c #5F4649",
"h  c #5C454A",
"j  c #5E464A",
"k  c #5E464B",
"l  c #5F474B",
"z  c #624642",
"x  c #644743",
"c  c #6A4A44",
"v  c #604749",
"b  c #63494B",
"n  c #64494B",
"m  c #674A4A",
"M  c #684A48",
"N  c #694A48",
"B  c #6E4D4B",
"V  c #6F4D4B",
"C  c #704D49",
"Z  c #724E49",
"A  c #704E4B",
"S  c #714E4B",
"D  c #734F4B",
"F  c #744F4B",
"G  c #724F4C",
"H  c #734F4C",
"J  c #75504B",
"K  c #76504A",
"L  c #76514B",
"P  c #74504C",
"I  c #76504C",
"U  c #76514C",
"Y  c #77514C",
"T  c #77524F",
"R  c #78514C",
"E  c #79524C",
"W  c #79524D",
"Q  c #7A524C",
"!  c #7A524D",
"~  c #7B534D",
"^  c #7B534E",
"/  c #7C534D",
"(  c #7C534E",
")  c #7C544F",
"_  c #7D544F",
"`  c #775252",
"'  c gray47",
"]  c #FF1B1B",
"[  c #815651",
"{  c #835852",
"}  c #845852",
"|  c #845853",
" . c #855953",
".. c #815854",
"X. c #825855",
"o. c #835855",
"O. c #835955",
"+. c #855955",
"@. c #8C5C56",
"#. c #8C5D56",
"$. c #8D5D57",
"%. c #8F5E57",
"&. c #8E5E58",
"*. c #93605A",
"=. c gray64",
"-. c white",
/* pixels */
"$ p ] Q R Y Y Y Y R Q ] q # - , % i V ] R Y Y Y Y R Q B ] # - 3 ",
"p g -.E R Y Y Y Y R E -.b s y 3 q g S -.R Y Y Y Y R E G -.s u 2 ",
"V -.] ' Y Y Y Y Y Y -.] ' ` s 9 m D -.] ' Y Y Y Y Y L -.] ' f = ",
"Q ] =.=.Y Y Y Y Y U ] =.=.+.h 0 A / =.=.] Y Y Y Y U J =.=.] l % ",
"R =.=.=.Y Y Y Y Y U =.=.=.o.f 0 V Q =.=.=.Y Y Y Y U J =.=.=.k & ",
"' =.=.' ' Y Y Y Y ' =.=.' ' f 9 B ' =.=.' ' Y Y Y U ' =.=.' ' & ",
"    '     Y Y Y Y     '     f 9 B     '     Y Y Y U     '     & ",
"Y       Y Y Y Y Y U       ..f 9 B Q       Y Y Y Y U J       j & ",
"Y Y ] Y Y Y Y Y Y I F ] @...f 9 B Q R ] Y Y Y Y Y I F ( ] X.k & ",
"R Y -.U U U U U I Y W -.%.X.f 0 B ! R -.U U U U I Y W [ -.o.k & ",
"W -.] ' J J J J F W -.] ' O.f 0 A ~ -.] ' J J J F W } -.] ' k & ",
"C ] =.=._ _ _ ) ^ [ ] =.=.T a 8 N K =.=.] _ _ ) ^ [ $.=.=.] d = ",
"@ =.=.=.$.#.#.@.@.&.=.=.=.e 5 1 w c =.=.=.#.#.@.@.&.*.=.=.=.8 2 ",
"' =.=.' ' { { { { ' =.=.' ' : > X ' =.=.' ' { { { | ' =.=.' ' t ",
"    '     z z z z     '     3 3 >     '     z z z z     '     3 ",
";       + O O O O +       ; 2 3 ; 4       O O O O + +       2 3 ",
"* q ] Z C C C C C C Z ] 6 # - 2 * q N ] C C C C C C Z M ] # - 3 ",
"i g -.~ ! W W W W ! ~ -.n s 7 3 q v H -.! W W W W ! ~ P -.s u 2 ",
"V -.] ' R R R R R Y -.] ' ` s 9 m H -.] ' R R R R Y Y -.] ' f = ",
"Q ] =.=.Y Y Y Y Y U ] =.=.+.h 0 A / =.=.] Y Y Y Y U J =.=.] l % ",
"R =.=.=.Y Y Y Y Y U =.=.=.o.f 0 V Q =.=.=.Y Y Y Y U J =.=.=.k & ",
"' =.=.' ' Y Y Y Y ' =.=.' ' f 9 B ' =.=.' ' Y Y Y U ' =.=.' ' & ",
"    '     Y Y Y Y     '     f 9 B     '     Y Y Y U     '     & ",
"Y       Y Y Y Y Y U       ..f 9 B Q       Y Y Y Y U J       j & ",
"Y Y ] Y Y Y Y Y Y I F ] @...f 9 B Q R ] Y Y Y Y Y I F ( ] X.k & ",
"R Y -.U U U U U I Y W -.%.X.f 0 B ! R -.U U U U I Y W [ -.o.k & ",
"W -.] ' J J J J F W -.] ' O.f 0 A ~ -.] ' J J J F W } -.] ' k & ",
"C ] =.=._ _ _ ) ^ [ ] =.=.T a 8 N K =.=.] _ _ ) ^ [ $.=.=.] d = ",
"@ =.=.=.$.#.#.@.@.&.=.=.=.e 5 1 w c =.=.=.#.#.@.@.&.*.=.=.=.8 2 ",
"' =.=.' ' | | | | ' =.=.' ' : > X ' =.=.' ' | | |  .' =.=.' ' t ",
"    '     x x x x     '     3 3 :     '     x x x x     '     3 ",
"r       o o o o o o       r 3 3 r <       o o o o o .       3 3 "
};
