/* XPM */
static char *result[] = {
/* columns rows colors chars-per-pixel */
"32 32 140 2 ",
"   c #2E1E22",
".  c #323234",
"X  c #4C3400",
"o  c #563F3B",
"O  c #523E3D",
"+  c #503D3E",
"@  c #503D3F",
"#  c #553F3C",
"$  c #543F3F",
"%  c #534721",
"&  c #5B423F",
"*  c #5C423E",
"=  c #5C423F",
"-  c #5D433F",
";  c #4B3D46",
":  c #4B3E46",
">  c #4C3E46",
",  c #4D3E46",
"<  c #4C3E47",
"1  c #4E3E46",
"2  c #4F3F47",
"3  c #4F3F48",
"4  c #503F45",
"5  c #513F45",
"6  c #503F47",
"7  c #514045",
"8  c #514046",
"9  c #504047",
"0  c #514047",
"q  c #524046",
"w  c #534146",
"e  c #554144",
"r  c #564144",
"t  c #544146",
"y  c #554247",
"u  c #594241",
"i  c #5D4441",
"p  c #5D4442",
"a  c #5F4543",
"s  c #504048",
"d  c #514048",
"f  c #534148",
"g  c #564248",
"h  c #574248",
"j  c #594449",
"k  c #5B4549",
"l  c #5B454A",
"z  c #5F4649",
"x  c #5E464A",
"c  c #5E464B",
"v  c #5F474B",
"b  c #545456",
"n  c #604543",
"m  c #624642",
"M  c #634642",
"N  c #644743",
"B  c #654743",
"V  c #604544",
"C  c #694945",
"Z  c #6F4C47",
"A  c #63494B",
"S  c #64494B",
"D  c #684A48",
"F  c #694A48",
"G  c #6E4D4B",
"H  c #6F4D4B",
"J  c #704D49",
"K  c #724E49",
"L  c #714E4B",
"P  c #734F4A",
"I  c #744F4B",
"U  c #724F4C",
"Y  c #75504B",
"T  c #76514B",
"R  c #74504C",
"E  c #75504C",
"W  c #76504C",
"Q  c #76514C",
"!  c #77514C",
"~  c #78514C",
"^  c #78524C",
"/  c #79524C",
"(  c #78524D",
")  c #79524D",
"_  c #7A524C",
"`  c #7A524D",
"'  c #7B534D",
"]  c #79524E",
"[  c #78524F",
"{  c #7A534E",
"}  c #7B534E",
"|  c #7A534F",
" . c #7C534E",
".. c #7C544E",
"X. c #7C544F",
"o. c #7D544F",
"O. c #7E554F",
"+. c #77584A",
"@. c #785352",
"#. c #767678",
"$. c #806800",
"%. c #8B5E4A",
"&. c #815651",
"*. c #825753",
"=. c #835852",
"-. c #825853",
";. c #845852",
":. c #845853",
">. c #855953",
",. c #865953",
"<. c #825854",
"1. c #825855",
"2. c #835855",
"3. c #835955",
"4. c #845955",
"5. c #865954",
"6. c #875A54",
"7. c #865A55",
"8. c #895B54",
"9. c #8C5C56",
"0. c #8C5D56",
"q. c #8D5D56",
"w. c #8D5D57",
"e. c #8E5D56",
"r. c #8F5E57",
"t. c #8E5E58",
"y. c #8F5E58",
"u. c #905E57",
"i. c #905E58",
"p. c #93605A",
"a. c #946059",
"s. c #A77E5D",
"d. c #B19D00",
"f. c #CBB900",
"g. c #979799",
"h. c #B7B7BB",
"j. c #EEBE93",
"k. c #FFE1AF",
"l. c #D2D2D6",
"z. c white",
/* pixels */
": h H _ ~ ! ! ! ! ~ _ G y ; 2 6 > g H _ ~ ! ! ! ! ~ _ G y ; 2 0 ",
"h z L / ~ ! ! ! ! ~ / U A . . . . . . . ~ ! ! ! ! ~ / U A j f 9 ",
"H L E ~ ! ! ! ! ! ! T . . b b #.#.#.b b . . ! ! ! ! T { *.@.l 1 ",
"_ / ~ ! ! ! ! ! ! Q . b #.#.g.g.g.g.g.#.#.b . ! ! Q Y O.u.7.v > ",
"~ ~ ! ! ! ! ! ! ! . b #.g.g.g.h.h.h.g.g.g.#.b . ! Q Y o.e.3.c , ",
"! ! ! ! ! ! ! ! . b #.g.g.g.h.h.h.h.h.g.g.g.#.b . Q Y o.q.<.x , ",
"! ! ! ! ! ! ! . b #.g.g.g.h.h.h.h.h.h.h.g.g.g.#.b . Y o.q.<.x , ",
"! ! ! ! ! ! ! . #.#.g.g.g.h.h.h.h.h.h.h.g.g.g.#.#.. Y ..q.<.x , ",
"! ! ! ! ! ! . b #.g.g.g.g.g.h.h.h.h.h.g.g.g.g.g.#.b .  .9.1.c , ",
"~ ! ! Q Q Q . b #.g.g.g.g.g.g.#.. . . #.#.g.g.#.b . . &.r.2.c , ",
") ( W Y Y Y . b #.g.g.g.g.g.#.. #.g.g.b b b b b . g.b . a.4.c , ",
"J P { o.o.o.. b #.#.g.#.b b . #.g.h.h.h.h.h.h.g.g.#.b . 8.[ k 1 ",
"- C =.y.w.0.. b #.#.#.b g.h.b #.h.  #.g.g.g.g.#.#.g.. 8.Z p t 9 ",
"O a { 5.:.=.. b b #.. g.b b h.b h.b             g.g.. . i @ 4 d ",
"5 e a M m m . b b b . #.. . g.b g.h.b         g.z.g.b . e 4 0 0 ",
"3 q u * = & . b b b . b . . g.. b g.h.h.h.g.g.z.z.g.. u 8 3 9 0 ",
"< y F K J J J . b b b . b #.. . k.b #.g.g.g.z.z.h.. K D w ; 2 0 ",
"g z U ' ` ) ) ) . b b b . . b . k.k.k.k.g.z.z.z.g.` ' R S j f 9 ",
"H L Q ^ ~ ~ ~ ~ . b b b b #.b . j.j.j.g.z.z.l.g.~ ! ! } -.@.l 1 ",
"_ / ~ ! ! ! ! . b #.g.h.#.b . % % % g.z.z.l.g.! ! Q Y O.u.7.v > ",
"~ ~ ! ! ! ! ! ! . . . . . . b . b g.z.z.l.g.. ! ! Q Y o.e.3.c , ",
"! ! ! ! ! ! ! ! ! Q . #.g.X #.b g.z.z.l.g.b . ! ! Q Y o.q.<.x , ",
"! ! ! ! ! ! ! ! ! Q . b X d.X g.z.z.l.g.b . . ! ! Q Y o.q.<.x , ",
"! ! ! ! ! ! ! ! ! Q Y . X f.d.z.z.l.g.b #.b . ! ! Q Y ..q.<.x , ",
"! ! ! ! ! ! ! ! ! W I % #.X f.d.l.g.b b . . ! ! ! W I  .9.1.c , ",
"~ ! ! Q Q Q Q Q W ! ) % %.s.$.f.d.$.X g.#.. Q Q W ! ) &.r.2.c , ",
") ( W Y Y Y Y Y I ) ;.% +.s.s.$.f.f.d.X #.. Y Y I ) ;.w.a.4.c , ",
"J P { o.o.o.o.X.} &.w.i.% % % #.X X X g.b . o.X.} &.w.i.8.[ k 1 ",
"- C =.y.w.0.0.9.9.t.p.8.Z % b . . b . . . 0.0.9.9.t.p.8.Z p t 9 ",
"O a | 6.>.:.:.:.:.>.,.] i % +.%.s.%.% 6.>.:.:.:.:.>.,.] i + 4 d ",
"5 r V B N N N N N N B n e % +.%.s.s.% B N N N N N N B n e 4 0 0 ",
"s 7 $ o # # # # # # o $ 7 s % % % % $ o # # # # # # o $ 7 s 0 0 "
};
