/* XPM */
static char *result[] = {
/* columns rows colors chars-per-pixel */
"32 32 135 2 ",
"   c #2E1E22",
".  c #323234",
"X  c #4C3400",
"o  c #563F3B",
"O  c #523E3D",
"+  c #503D3E",
"@  c #503D3F",
"#  c #553F3C",
"$  c #543F3F",
"%  c #534721",
"&  c #5C423E",
"*  c #5D433F",
"=  c #4B3D46",
"-  c #4B3E46",
";  c #4C3E46",
":  c #4D3E46",
">  c #4C3E47",
",  c #4E3E46",
"<  c #4F3F47",
"1  c #4F3F48",
"2  c #503F45",
"3  c #513F45",
"4  c #503F47",
"5  c #514045",
"6  c #514046",
"7  c #504047",
"8  c #514047",
"9  c #524046",
"0  c #534146",
"q  c #554144",
"w  c #564144",
"e  c #544146",
"r  c #554247",
"t  c #594241",
"y  c #5D4441",
"u  c #5D4442",
"i  c #5E4442",
"p  c #5F4543",
"a  c #504048",
"s  c #514048",
"d  c #534148",
"f  c #564248",
"g  c #574248",
"h  c #594449",
"j  c #5B4549",
"k  c #5B454A",
"l  c #5F4649",
"z  c #5E464A",
"x  c #5E464B",
"c  c #5F474B",
"v  c #545456",
"b  c #604543",
"n  c #644743",
"m  c #654743",
"M  c #604544",
"N  c #694945",
"B  c #6F4C47",
"V  c #63494B",
"C  c #64494B",
"Z  c #684A48",
"A  c #694A48",
"S  c #6E4D4B",
"D  c #6F4D4B",
"F  c #704D49",
"G  c #724E49",
"H  c #714E4B",
"J  c #734F4A",
"K  c #744F4B",
"L  c #724F4C",
"P  c #75504B",
"I  c #76514B",
"U  c #74504C",
"Y  c #75504C",
"T  c #76504C",
"R  c #76514C",
"E  c #77514C",
"W  c #78514C",
"Q  c #78524C",
"!  c #79524C",
"~  c #78524D",
"^  c #79524D",
"/  c #7A524C",
"(  c #7A524D",
")  c #7B534D",
"_  c #79524E",
"`  c #78524F",
"'  c #7A534E",
"]  c #7B534E",
"[  c #7A534F",
"{  c #7C534E",
"}  c #7C544E",
"|  c #7C544F",
" . c #7D544F",
".. c #7E554F",
"X. c #77584A",
"o. c #785352",
"O. c #767678",
"+. c #8B5E4A",
"@. c #815651",
"#. c #825753",
"$. c #835852",
"%. c #825853",
"&. c #845852",
"*. c #845853",
"=. c #855953",
"-. c #865953",
";. c #825854",
":. c #825855",
">. c #835855",
",. c #835955",
"<. c #845955",
"1. c #875A54",
"2. c #865A55",
"3. c #895B54",
"4. c #8C5C56",
"5. c #8C5D56",
"6. c #8D5D56",
"7. c #8D5D57",
"8. c #8E5D56",
"9. c #8F5E57",
"0. c #8E5E58",
"q. c #8F5E58",
"w. c #905E57",
"e. c #905E58",
"r. c #9D704C",
"t. c #93605A",
"y. c #946059",
"u. c #A77E5D",
"i. c #B19D00",
"p. c #D7906E",
"a. c #979799",
"s. c #B7B7BB",
"d. c #EEBE93",
"f. c #FFE1AF",
"g. c #D2D2D6",
/* pixels */
"- g D / W E E E E W / S r = < 4 ; f D / W E E E E W / S r = < 8 ",
"g l H ! W E E E E W ! L V . . . . . . . W E E E E W ! L V h d 7 ",
"D H Y W E E E E E E I . . v v O.O.O.v v . . E E E E I ' #.o.k , ",
"/ ! W E E E E E E R . v O.O.a.a.a.a.a.O.O.v . E E R P ..w.2.c ; ",
"W W E E E E E E E . v O.a.a.a.s.s.s.a.a.a.O.v . E R P  .8.,.x : ",
"E E E E E E E E . v O.a.a.a.s.s.s.s.s.a.a.a.O.v . R P  .6.;.z : ",
"E E E E E E E . v O.a.a.a.s.s.s.s.s.s.s.a.a.a.O.v . P  .6.;.z : ",
"E E E E E E E . O.O.a.a.a.s.s.s.s.s.s.s.a.a.a.O.O.. P } 6.;.z : ",
"E E E E E E . v O.a.a.a.a.a.s.s.s.s.s.a.a.a.a.a.O.v . { 4.:.x : ",
"W E E R R R . . v O.a.a.O.O.. . . O.a.a.a.a.a.a.O.v . @.9.>.x : ",
"^ ~ T P P . v a.. v v v v v a.a.O.. O.a.a.a.a.a.O.v . 7.y.<.x : ",
"F J ' a. .. v O.a.a.s.s.s.s.s.s.a.O.. v v O.a.O.O.v . e.3.` j , ",
"* N $.a.a.5.. v O.O.a.a.a.a.O.  s.O.v s.a.v O.O.O.v . 3.B u e 7 ",
"O p ' a.g.. .                 v s.v s.v v a.. O.v v . ~ y @ 2 s ",
"3 q p a.g.. v               v s.a.v a.. . O.. v v v . i q 2 8 8 ",
"1 9 t & a.g.. v O.a.a.a.s.s.s.a.v . a.. . v . v v v . t 6 1 7 8 ",
"> r A G a.g.g.. . v O.O.a.a.O.v f.. . O.v . v v v . G Z 0 = < 8 ",
"f l L ) ( a.g.g.g.% p.d.f.f.f.f.f.. v . . v v v . ( ) U C h d 7 ",
"D H R Q W W a.g.g.g.% r.p.p.d.d.d.. v O.v v v v . E E ] %.o.k , ",
"/ ! W E E E E a.g.g.g.% % % % % % % . v O.s.a.O.v . P ..w.2.c ; ",
"W W E E E E E E a.g.. v O.O.a.O.v . v . . . . . . R P  .8.,.x : ",
"E E E E E E E E E a.. v O.a.s.s.O.v O.a.a.O.. E E R P  .6.;.z : ",
"E E E E E E E E E R . . v a.s.a.O.. . . . v . E E R P  .6.;.z : ",
"E E E E E E E E E R . v O.v v . . % a.s.v . E E E R P } 6.;.z : ",
"E E E E E E E E E T X . . v v v v % a.a.O.% E E E T K { 4.:.x : ",
"W E E R R R R R T X i.. O.a.s.v s.% u.u.+.% R R T E ^ @.9.>.x : ",
"^ ~ T P P P P P K ^ X . O.a.a.. a.% u.u.X.% P P K ^ &.7.y.<.x : ",
"F J '  . . . .| ] @.7.. v a.. . O.O.% % %  . .| ] @.7.e.3.` j , ",
"* N $.q.7.5.5.4.4.0.t.3.. . . v . . v % 7.5.5.4.4.0.t.3.B u e 7 ",
"O p [ 1.=.*.*.*.*.=.-._ y @ % +.u.+.X.% =.*.*.*.*.=.-._ y + 2 s ",
"3 w M m n n n n n n m b q 2 % u.u.+.X.% n n n n n n m b q 2 8 8 ",
"a 5 $ o # # # # # # o $ 5 a 8 % % % % o # # # # # # o $ 5 a 8 8 "
};
