/* XPM */
static char *result[] = {
/* columns rows colors chars-per-pixel */
"32 32 211 2 ",
"   c gray11",
".  c #202E35",
"X  c #232F35",
"o  c #202F36",
"O  c #212F36",
"+  c #212F37",
"@  c #222F36",
"#  c #222F38",
"$  c #203037",
"%  c #213037",
"&  c #223036",
"*  c #213038",
"=  c #213139",
"-  c #223038",
";  c #233038",
":  c #223138",
">  c #223139",
",  c #22313A",
"<  c #22323A",
"1  c #22333C",
"2  c #23333C",
"3  c #23343E",
"4  c #24353F",
"5  c #2D3A3F",
"6  c #4C3C3E",
"7  c #4F3C3E",
"8  c #563F3B",
"9  c #523E3D",
"0  c #503D3E",
"q  c #553F3C",
"w  c #543F3F",
"e  c #58423F",
"r  c #5C423E",
"t  c #5C423F",
"y  c #5D433F",
"u  c #243640",
"i  c #243740",
"p  c #243641",
"a  c #243741",
"s  c #253842",
"d  c #253843",
"f  c #4C3E43",
"g  c #4B3D46",
"h  c #4B3E46",
"j  c #4B3E47",
"k  c #4D3E45",
"l  c #4F3E44",
"z  c #4C3E46",
"x  c #4D3E46",
"c  c #4C3E47",
"v  c #4E3E46",
"b  c #4F3F47",
"n  c #4F3F48",
"m  c #513F42",
"M  c #513F44",
"N  c #503F45",
"B  c #513F45",
"V  c #503F46",
"C  c #503F47",
"Z  c #514045",
"A  c #504047",
"S  c #514047",
"D  c #524046",
"F  c #534146",
"G  c #554144",
"H  c #564144",
"J  c #544146",
"K  c #544147",
"L  c #554147",
"P  c #554247",
"I  c #584240",
"U  c #594241",
"Y  c #5D4442",
"T  c #5F4543",
"R  c #504048",
"E  c #514048",
"W  c #524148",
"Q  c #534148",
"!  c #564248",
"~  c #574248",
"^  c #594449",
"/  c #5B4549",
"(  c #5B454A",
")  c #5F4649",
"_  c #5C454A",
"`  c #5E464A",
"'  c #5E464B",
"]  c #5F474B",
"[  c #614643",
"{  c #624642",
"}  c #634642",
"|  c #644743",
" . c #654743",
".. c #604544",
"X. c #694945",
"o. c #694A45",
"O. c #63494B",
"+. c #64494B",
"@. c #674A4A",
"#. c #684A48",
"$. c #6C4B48",
"%. c #6F4E49",
"&. c #6E4D4B",
"*. c #6F4D4B",
"=. c #704D49",
"-. c #724E49",
";. c #714E4A",
":. c #704E4B",
">. c #714E4B",
",. c #714F4B",
"<. c #734F4A",
"1. c #724F4B",
"2. c #734F4B",
"3. c #724F4C",
"4. c #744F4C",
"5. c #75504B",
"6. c #76514B",
"7. c #74504C",
"8. c #75504C",
"9. c #76504C",
"0. c #76514C",
"q. c #77514C",
"w. c #77514D",
"e. c #77514E",
"r. c #78514C",
"t. c #78524C",
"y. c #79524C",
"u. c #78524D",
"i. c #79524D",
"p. c #7A524C",
"a. c #7A524D",
"s. c #7B534D",
"d. c #79524E",
"f. c #78524F",
"g. c #7A534E",
"h. c #7B534E",
"j. c #7A534F",
"k. c #7C534D",
"l. c #7D544F",
"z. c #7E554F",
"x. c #775252",
"c. c #785352",
"v. c #7B5551",
"b. c #7B5553",
"n. c #7C5553",
"m. c #7D5652",
"M. c #E30000",
"N. c #815651",
"B. c #805752",
"V. c #825753",
"C. c #815851",
"Z. c #835852",
"A. c #825853",
"S. c #845853",
"D. c #855953",
"F. c #865953",
"G. c #825854",
"H. c #825855",
"J. c #835855",
"K. c #835955",
"L. c #845954",
"P. c #845955",
"I. c #855955",
"U. c #865954",
"Y. c #875A54",
"T. c #865A55",
"R. c #875A55",
"E. c #895B54",
"W. c #8C5C56",
"Q. c #8D5D56",
"!. c #8D5D57",
"~. c #8E5D56",
"^. c #8F5E58",
"/. c #905E57",
"(. c #905E58",
"). c #946059",
"_. c #41799B",
"`. c #407A9D",
"'. c #427B9D",
"]. c #407A9E",
"[. c #427B9E",
"{. c #427C9E",
"}. c #437C9F",
"|. c #437D9F",
" X c #417CA1",
".X c #437DA0",
"XX c #447EA2",
"oX c #9A2890",
"OX c #4981A2",
"+X c #4B8DB6",
"@X c #4C8FB8",
"#X c #4C91BA",
"$X c #4C91BB",
"%X c #4D91BB",
"&X c #4D92BB",
"*X c #4990BC",
"=X c #4D92BC",
"-X c #4D94BE",
";X c #4E94BE",
":X c #4E94BF",
">X c #5597BE",
",X c #4E95C0",
"<X c #4F96C1",
"1X c #D3B58F",
"2X c #DCB88E",
"3X c #D3B691",
"4X c #FED6A7",
"5X c #FFD7A8",
"6X c #FFDCAC",
"7X c #FDFCFC",
"8X c white",
/* pixels */
"S A v z x x x x x x x v A E S S S A v z x x x x x x x v A E S S ",
"b Q ( ] ' ` ` ` ' ' ' / J N S A b M.M.M.M.M.M.` ' ' ' / J N S S ",
"g ^ c.T.K.G.G.v.b.n.m.3.I 6 f j g M.M.M.K.G.G.G.H.J.P.f.Y 0 N R ",
"P O.V./.~.Q.Q.D.L.R.W.C.o.e m k F +.A./.M.M.Q.Q.W.M.).E.M.M.G Z ",
"&.3.g.z.l.w.w.d < < d d d d d < #.7.M.M.M.M.M.M.M.M.M.(.M.d.M.w ",
"p.y.6.5.5.%.%.d < < d d d d d < -.s.M.5.5.5.M.M.M.M.M.M.M.F.M.8 ",
"r.r.q.0.,.s s <Xu u <X<X<X<X<X* =.M.M.0.0.0.M.M.9.q.M.M.M.D.M.M.",
"q.q.q.q.< <X<X=X<X<X=X=X=X=X=X* $.4.M.M.M.M.M.M.M.M.M.M.W.S.| q ",
"q.q.q.q.< <X<X=X<X<X=X=X=X=X=X* $.4.1.,.,.,.,.M.M.M.;.e.W.S.| q ",
"q.q.q.q.* =X=X=X=X=X=X=X=X=X=X* i i 5 5 5 5 5 p i i a a Y.S.| q ",
"q.q.q.q.* =X=X=X=X=X=X=X=X=X=X* i i 5 5 5 5 5 p i i a a Y.S.| q ",
"r.r.q.q.* =X=X=X+X+X=X=X=X=X=X3 ,X,X6X6X6X6X6X>X,X,X:X:X4 B.[ q ",
"p.y.r.q.* =X=X=X= = =X=X=X=X=X:X=X=X5X5X5X5X5X2XM.M._._.}., , 8 ",
"*.>.0.t.* =X=X=X= = =X=X=X=X=X:X=XM.M.5X5XM.5X2X=X=XM._.}., , w ",
"! ) 2.k.* =X=X$X-X-X$X$X%X%X%X}.=XM.5X5X5XM.5X3X=X=XM.M.X ; ; Z ",
"z P @.:.* =X=X$X-X-X$X$X%X%X%X}.M.M.5X5X5XM.M.3X=X=X. . M.; ; R ",
"C S K L * @X@XOXOXOXOXOX|.|.|.M.M.%X4X4X4X4XM.*X=X=X1 1 M B S S ",
"b W ^ _ * * *   7X7X7X  .X.X.X.X.X.XM.M.1X1XM.|.&X&X;X;X2 l V S ",
"g ^ x.I.* * * 7X  7X  7X.X.X.X.X.X.XM.1X1X1XM.|.&X&X;X;X2 7 l R ",
"P O.V./.* XXXX8X8X  8X8X.X.X.X.X[.[.M.].]. X X.XM.M.'.'..X> > Z ",
"&.3.g.z.* XXXX8X  8X  8X.X.X.X.X[.[.M.].]. X X.X'.M.'.'..X> > w ",
"p.y.6.5.* .X.X  8X8X8X  {.{.{.{.O O M.@ o =X=X{.O O M.@ & - - 8 ",
"r.r.q.0.* }.}.`.`.`.].].# # # + - - q.0.* #X#X+ - - M.N.M.M.| q ",
"q.q.q.q.* }.}.`.`.`.].].# # # + - - r.q.* #X#X+ - - M.h.M.S.| q ",
"q.q.q.q.: + + # # # + + oXoXoX* =.i.r.q.: % % : q.0.M.M.M.M.| q ",
"q.q.q.q.: + + # # # + + oXoXoX* =.i.M.q.: % % : q.0.M.M.M.M.M.q ",
"q.q.q.q.q.- - oXoXoX* * % % $ * =.i.M.M.M.M.q.M.q.M.M.l.M.S.M.M.",
"r.r.q.q.q.q.q.* * * * * !.S.{ t =.a.M.M.q.M.M.M.M.0.5.l.M.M.M.M.",
"p.y.r.q.q.q.q.* * * * * ^.U.} r M.M.M.M.M.q.q.q.M.0.5.l.^.Y. .8 ",
"*.>.8.r.q.q.q.q.q.q.9.g.Z.g.T U M.M.M.r.M.M.M.M.M.M.M.M.Z.j...w ",
"~ ) >.y.r.q.q.q.q.q.u.<.X.T G D P ) M.M.M.q.M.M.M.M.M.M.X.T H Z ",
"h ~ *.p.r.q.q.q.q.r.i.=.y 9 B n c ! *.p.r.q.q.q.q.r.i.=.y 9 B R "
};
