/* XPM */
static char *result[] = {
/* columns rows colors chars-per-pixel */
"32 32 196 2 ",
"   c #303849",
".  c #30394A",
"X  c #31394A",
"o  c #323B4D",
"O  c #333C4D",
"+  c #333C4E",
"@  c #333D4E",
"#  c #343D4F",
"$  c #343E50",
"%  c #353E50",
"&  c #363F51",
"*  c #374054",
"=  c #374154",
"-  c #384255",
";  c #384256",
":  c #394356",
">  c #394357",
",  c #3B4558",
"<  c #3A4559",
"1  c #3B465A",
"2  c #3C4659",
"3  c #3C465A",
"4  c #3C465B",
"5  c #3C475B",
"6  c #3D475B",
"7  c #3E475B",
"8  c #3C475C",
"9  c #3E485C",
"0  c #3F495C",
"q  c #3E495D",
"w  c #3F495D",
"e  c #3F495E",
"r  c #3F4A5E",
"t  c #3F4B60",
"y  c #404A5E",
"u  c #404A5F",
"i  c #404B5F",
"p  c #414B5F",
"a  c #404B60",
"s  c #414B60",
"d  c #404B61",
"f  c #414C60",
"g  c #404C61",
"h  c #414C61",
"j  c #404C62",
"k  c #414C62",
"l  c #414D62",
"z  c #414D63",
"x  c #424E63",
"c  c #424E64",
"v  c #434E64",
"b  c #434F65",
"n  c #445065",
"m  c #445066",
"M  c #445167",
"N  c #455168",
"B  c #455169",
"V  c #455268",
"C  c #465269",
"Z  c #46526A",
"A  c #46536A",
"S  c #47536A",
"D  c #47536B",
"F  c #47546B",
"G  c #48546B",
"H  c #48546C",
"J  c #48556C",
"K  c #49556D",
"L  c #49566D",
"P  c #4A566D",
"I  c #49566E",
"U  c #4A566E",
"Y  c #4A576E",
"T  c #4A576F",
"R  c #4B586F",
"E  c #4B5871",
"W  c #4C5971",
"Q  c #4C5973",
"!  c #4D5A72",
"~  c #4D5A73",
"^  c #4C5974",
"/  c #4D5A74",
"(  c #4E5B74",
")  c #4E5C78",
"_  c #4F5C78",
"`  c #505D79",
"'  c #515E78",
"]  c #505E79",
"[  c #515E7A",
"{  c #515E7B",
"}  c #515F7B",
"|  c #525F7C",
" . c #52607C",
".. c #53607D",
"X. c #53617D",
"o. c #53627E",
"O. c #54627E",
"+. c #546380",
"@. c #556380",
"#. c #556381",
"$. c #556481",
"%. c #566481",
"&. c #566582",
"*. c #576583",
"=. c #576684",
"-. c #576685",
";. c #586785",
":. c #586786",
">. c #5B6984",
",. c #5B6985",
"<. c #586887",
"1. c #596887",
"2. c #5A6886",
"3. c #5B6A87",
"4. c #5C6A85",
"5. c #5D6B86",
"6. c #596888",
"7. c #596988",
"8. c #5B6A88",
"9. c #5B6A8A",
"0. c #5B6B8A",
"q. c #5C6B8B",
"w. c #5E6C89",
"e. c #5C6C8B",
"r. c #5D6C8B",
"t. c #5F6E8A",
"y. c #5C6C8C",
"u. c #5D6C8C",
"i. c #5D6D8C",
"p. c #5D6D8D",
"a. c #5E6D8D",
"s. c #5E6E8D",
"d. c #5E6E8E",
"f. c #5F6E8E",
"g. c #5F6F8E",
"h. c #5F6F90",
"j. c #616F8C",
"k. c #606F8E",
"l. c #606F8F",
"z. c #62718E",
"x. c #63718E",
"c. c #63728F",
"v. c #64728F",
"b. c #606F90",
"n. c #617090",
"m. c #617191",
"M. c #637290",
"N. c #627292",
"B. c #627293",
"V. c #637393",
"C. c #647390",
"Z. c #647391",
"A. c #657391",
"S. c #657491",
"D. c #657492",
"F. c #667592",
"G. c #647494",
"H. c #657495",
"J. c #667695",
"K. c #667697",
"L. c #687896",
"P. c #697896",
"I. c #697897",
"U. c #6A7997",
"Y. c #677798",
"T. c #687898",
"R. c #697998",
"E. c #6A7998",
"W. c #6A7A98",
"Q. c #6B7A99",
"!. c #6B7B9A",
"~. c #6A7A9B",
"^. c #6B7B9B",
"/. c #6C7C9B",
"(. c #6B7B9C",
"). c #6D7D9D",
"_. c #6E7E9E",
"`. c #6E7F9F",
"'. c #6E7FA0",
"]. c #6F7FA0",
"[. c #6F80A0",
"{. c #6F80A1",
"}. c #7080A1",
"|. c #7181A2",
" X c #7181A3",
".X c #7182A3",
"XX c #7282A4",
"oX c #7383A4",
"OX c #7383A5",
"+X c #7384A5",
"@X c #7484A5",
"#X c #7485A7",
"$X c #7585A7",
"%X c #7686A8",
"&X c #7687A9",
"*X c #7788AA",
/* pixels */
"M t %   . X X X X X X X X .   % h h %   . X X X X X X X X X X X ",
"b v h s f h h h h h h h h f s h v v h s f h h h h h h h h f s s ",
"l P 5.F.S.A.A.A.A.A.A.A.A.S.F.4.F F 4.F.S.A.A.A.A.A.A.A.A.C.v.c.",
"g ~ !.*XXX{.}.}.{.{.}.}.{.XX*XE.Y Y E.*XXX{.}.}.{.{.}.}.{.|.+X$X",
"k ( /.#XY.m.N.N.m.m.N.N.m.Y.#XQ.R R Q.#XY.m.N.N.m.m.N.N.m.K.|.%X",
"8 C 4.j.O.) _ { o.o.{ _ ) O.j.>.n n >.j.O.) _ { o.o.{ _ ) X.w.c.",
"+ & , 3 > = * 1 B B 1 * = > 3 , % % , 3 > = * 1 B B 1 * = : 2 6 ",
"p y 9 6 9 w 9 e k k e 9 w 9 6 9 u u 9 6 9 w 9 e k k e 9 w 9 7 6 ",
"C.C.v.c.v.C.S.>.S S >.S.C.v.c.v.C.C.v.c.v.C.S.>.S S >.S.C.v.c.c.",
"].].].].'.|.&XI.U U R.&X X`.].].].].].].'.|.&XI.U U I.&X|.'.].].",
"l.l.l.g.s.G..XL.P Y E.OXH.s.g.l.l.l.l.g.s.G..XP.U U P..XG.s.g.l.",
"1.1.6.1.:.a.^.Z.I G t.J.r.<.1.6.1.1.6.1.:.a.^.Z.L L Z.^.a.:.1.6.",
"9.0.q.q.q.a.B.8.I b L ' 1.p.u.q.9.9.q.q.q.a.B.3.J J 3.B.a.q.q.e.",
"%.+. .[ } } } ^ c 5 < d / ..}  .@.@. .[ } } } Q l l Q } } } } } ",
"I N 3 = - ; ; = % + o # = ; = 4 C C 4 = - ; ; = $ $ = ; ; ; ; ; ",
"x h w 9 9 w 0 w u i i u w 9 9 e k k e 9 9 w 0 w u u w 0 w w 9 9 ",
"g K 4.S.C.v.v.v.C.C.C.C.C.C.S.>.S S >.S.C.v.v.v.C.C.v.v.v.v.x.z.",
"a ! W.&X|.].[.{.].].].].'.|.&XI.U U I.&X|.'.].].].].].].'.}.oX@X",
"d ! U..XG.f.n.m.l.k.k.g.s.G..XP.U U P..XG.s.g.l.l.l.l.g.s.V._.oX",
"j W D.(.d.-.+.#.;.7.7.1.:.a.^.Z.L L Z.^.a.:.1.6.1.1.6.1.:.u.T.).",
"c T 8.B.h.=.E E *.u.y.q.q.a.B.3.J J 3.B.a.q.q.q.9.9.q.q.q.i.b.m.",
"q c ^ | ../ a k ] &...[ } } } Q l l Q } } } [  .@.@. .[ } [ ] ` ",
"@ % = ; : * O = M Z 4 = - ; ; = $ $ = ; ; - = 4 C C 4 = - ; - - ",
"i u w 0 0 w r a l h w 9 9 w 0 w u u w 0 w 9 9 e k k e 9 9 w w w ",
"C.C.v.v.v.C.D.,.S S >.S.C.v.v.v.C.C.v.v.v.C.S.>.S S >.S.C.v.v.v.",
"].].].].'.|.&XI.U U I.&X|.'.].].].].].].'.|.&XI.U U I.&X|.'.].].",
"l.l.l.g.s.G..XP.U U P..XG.s.g.l.l.l.l.g.s.G..XP.U U P..XG.s.g.l.",
"1.1.1.1.:.a.~.M.K K M.~.a.:.1.1.1.1.1.1.:.a.~.M.K K M.~.a.:.1.1.",
"9.9.9.9.9.u.m.2.D D 2.m.u.9.9.9.9.9.9.9.9.u.m.2.D D 2.m.u.9.9.9.",
"$.$.$.$.$.$.$.] V V ] $.$.$.$.$.$.$.$.$.$.$.$.] V V ] $.$.$.$.$.",
"H H H H H H H A m m A H H H H H H H H H H H H A m m A H H H H H ",
"z z z z z l l x b b x l l z z z z z z z z l l x b b x l l z z z "
};
