/* XPM */
static char *result[] = {
/* columns rows colors chars-per-pixel */
"32 32 146 2 ",
"   c #563F3B",
".  c #523E3D",
"X  c #503D3E",
"o  c #503D3F",
"O  c #513E3F",
"+  c #553F3C",
"@  c #543F3F",
"#  c #5B423F",
"$  c #5C423E",
"%  c #5C423F",
"&  c #5D433F",
"*  c #4B3D46",
"=  c #4B3E46",
"-  c #4C3E46",
";  c #4D3E46",
":  c #4C3E47",
">  c #4E3E46",
",  c #4F3F47",
"<  c #4F3F48",
"1  c #503F45",
"2  c #513F45",
"3  c #503F47",
"4  c #514045",
"5  c #524045",
"6  c #514046",
"7  c #504047",
"8  c #514047",
"9  c #524046",
"0  c #534046",
"q  c #534146",
"w  c #524147",
"e  c #554144",
"r  c #564144",
"t  c #544146",
"y  c #544147",
"u  c #554147",
"i  c #554247",
"p  c #594240",
"a  c #594241",
"s  c #5D4441",
"d  c #5D4442",
"f  c #5E4442",
"g  c #5F4542",
"h  c #5F4543",
"j  c #504048",
"k  c #514048",
"l  c #524148",
"z  c #534148",
"x  c #564248",
"c  c #574248",
"v  c #584449",
"b  c #594449",
"n  c #5B4549",
"m  c #5B454A",
"M  c #5F4649",
"N  c #5C454A",
"B  c #5E464A",
"V  c #5E464B",
"C  c #5F474B",
"Z  c #604543",
"A  c #624642",
"S  c #634642",
"D  c #644743",
"F  c #654743",
"G  c #604544",
"H  c #694945",
"J  c #6A4A44",
"K  c #6F4C47",
"L  c #604749",
"P  c #63494B",
"I  c #64494B",
"U  c #674A4A",
"Y  c #684A48",
"T  c #694A48",
"R  c #6E4D4B",
"E  c #6F4D4B",
"W  c #704D49",
"Q  c #724E49",
"!  c #704E4B",
"~  c #714E4B",
"^  c #734F4A",
"/  c #734F4B",
"(  c #744F4B",
")  c #724F4C",
"_  c #734F4C",
"`  c #75504B",
"'  c #76504A",
"]  c #76514B",
"[  c #74504C",
"{  c #75504C",
"}  c #76504C",
"|  c #76514C",
" . c #77514C",
".. c #77524F",
"X. c #78514C",
"o. c #78524C",
"O. c #79524C",
"+. c #78524D",
"@. c #79524D",
"#. c #7A524C",
"$. c #7A524D",
"%. c #7B534D",
"&. c #79524E",
"*. c #78524F",
"=. c #7A534E",
"-. c #7B534E",
";. c #7A534F",
":. c #7C534D",
">. c #7C534E",
",. c #7C544E",
"<. c #7C544F",
"1. c #7D544F",
"2. c #7E554F",
"3. c #775252",
"4. c #785352",
"5. c #815651",
"6. c #825753",
"7. c #835852",
"8. c #825853",
"9. c #845852",
"0. c #845853",
"q. c #855953",
"w. c #865953",
"e. c #815854",
"r. c #825854",
"t. c #825855",
"y. c #835855",
"u. c #835955",
"i. c #845955",
"p. c #855955",
"a. c #865954",
"s. c #875A54",
"d. c #865A55",
"f. c #895B54",
"g. c #8C5C56",
"h. c #8C5D56",
"j. c #8D5D56",
"k. c #8D5D57",
"l. c #8E5D56",
"z. c #8F5E57",
"x. c #8E5E58",
"c. c #8F5E58",
"v. c #905E57",
"b. c #905E58",
"n. c #93605A",
"m. c #946059",
/* pixels */
"= c E #.X. . . . .X.#.R i * , 3 - x E #.X. . . . .X.#.R i * , 8 ",
"c M ~ O.X. . . . .X.O.) P b l 8 i M ~ O.X. . . . .X.O.) P b z 7 ",
"E ~ { X. . . . . . .] =.6.3.b y U / | X. . . . . . .] =.6.4.m > ",
"#.O.X. . . . . . .| ` 2.v.p.N u ! :.o. . . . . . .| ` 2.v.d.C - ",
"X.X. . . . . . . .| ` 1.l.y.m u E #.X. . . . . . .| ` 1.l.u.V ; ",
" . . . . . . . . .| ` 1.j.e.m y R #.X. . . . . . .| ` 1.j.r.B ; ",
" . . . . . . . . .| ` 1.j.e.m y R #.X. . . . . . .| ` 1.j.r.B ; ",
" . . . . . . . . .| ` ,.j.e.m y R #.X. . . . . . .| ` ,.j.r.B ; ",
" . . . . . . . . .} ( >.g.e.m y R #.X. . . . . . .} ( >.g.t.V ; ",
"X. . .| | | | | }  .@.5.z.t.m u R $.X.| | | | | }  .@.5.z.y.V ; ",
"@.+.} ` ` ` ` ` ( @.9.k.m.u.m u ! %. .` ` ` ` ` ( @.9.k.m.i.V ; ",
"W ^ =.1.1.1.1.<.-.5.k.b.f...v t T ' -.1.1.1.1.<.-.5.k.b.f.*.n > ",
"& H 7.c.k.h.h.g.g.x.n.f.K d 0 5 p J 7.c.k.h.h.g.g.x.n.f.K d t 7 ",
". h =.a.0.7.7.7.7.0.q.+.s o 1 2 O g =.a.0.7.7.7.7.0.q.+.s o 1 k ",
"2 e h S A A A A A A S f e 1 8 8 2 e h S A A A A A A S f e 1 8 8 ",
"< 9 a $ % # # # # % % a 6 < 7 8 < 9 a $ % # # # # % % a 6 < 7 8 ",
": i T Q W W W W W W Q Y q * , 7 : i T Q W W W W W W Q Y q * , 8 ",
"x M ) %.$.@.@.@.@.$.%.[ I b w 8 i L _ %.$.@.@.@.@.$.%.[ I b z 7 ",
"E ~ | o.X.X.X.X.X. . .-.8.3.b y U _  .o.X.X.X.X.X. . .-.8.4.m > ",
"#.O.X. . . . . . .| ` 2.v.p.N u ! :.o. . . . . . .| ` 2.v.d.C - ",
"X.X. . . . . . . .| ` 1.l.y.m u E #.X. . . . . . .| ` 1.l.u.V ; ",
" . . . . . . . . .| ` 1.j.e.m y R #.X. . . . . . .| ` 1.j.r.B ; ",
" . . . . . . . . .| ` 1.j.e.m y R #.X. . . . . . .| ` 1.j.r.B ; ",
" . . . . . . . . .| ` ,.j.e.m y R #.X. . . . . . .| ` ,.j.r.B ; ",
" . . . . . . . . .} ( >.g.e.m y R #.X. . . . . . .} ( >.g.t.V ; ",
"X. . .| | | | | }  .@.5.z.t.m u R $.X.| | | | | }  .@.5.z.y.V ; ",
"@.+.} ` ` ` ` ` ( @.9.k.m.u.m u ! %. .` ` ` ` ` ( @.9.k.m.i.V ; ",
"W ^ =.1.1.1.1.<.-.5.k.b.f...v t T ' -.1.1.1.1.<.-.5.k.b.f.*.n > ",
"& H 7.c.k.h.h.g.g.x.n.f.K d 0 5 p J 7.c.k.h.h.g.g.x.n.f.K d t 7 ",
". h ;.s.q.0.0.0.0.q.w.&.s o 1 2 O g -.s.q.0.0.0.0.q.w.&.s X 1 k ",
"2 r G F D D D D D D F Z e 1 8 8 1 r G F D D D D D D F Z e 1 8 8 ",
"j 4 @   + + + + + +   @ 4 j 8 8 j 4 @   + + + + + +   @ 4 j 8 8 "
};
