/* XPM */
static char *result[] = {
/* columns rows colors chars-per-pixel */
"32 32 133 2 ",
"   c #323234",
".  c #4C3400",
"X  c #563F3B",
"o  c #523E3D",
"O  c #503D3E",
"+  c #503D3F",
"@  c #553F3C",
"#  c #543F3F",
"$  c #534721",
"%  c #5C423E",
"&  c #5C423F",
"*  c #5D433F",
"=  c #4B3D46",
"-  c #4B3E46",
";  c #4C3E46",
":  c #4D3E46",
">  c #4C3E47",
",  c #4E3E46",
"<  c #4F3F47",
"1  c #4F3F48",
"2  c #503F45",
"3  c #513F45",
"4  c #503F47",
"5  c #514045",
"6  c #504047",
"7  c #514047",
"8  c #524046",
"9  c #534146",
"0  c #554144",
"q  c #564144",
"w  c #544146",
"e  c #554247",
"r  c #594241",
"t  c #5D4441",
"y  c #5D4442",
"u  c #5F4543",
"i  c #504048",
"p  c #514048",
"a  c #534148",
"s  c #564248",
"d  c #574248",
"f  c #594449",
"g  c #5B4549",
"h  c #5B454A",
"j  c #5F4649",
"k  c #5E464A",
"l  c #5E464B",
"z  c #5F474B",
"x  c #545456",
"c  c #604543",
"v  c #634642",
"b  c #644743",
"n  c #654743",
"m  c #604544",
"M  c #694945",
"N  c #6F4C47",
"B  c #63494B",
"V  c #64494B",
"C  c #694A48",
"Z  c #6E4D4B",
"A  c #6F4D4B",
"S  c #704D49",
"D  c #724E49",
"F  c #714E4B",
"G  c #734F4A",
"H  c #744F4B",
"J  c #724F4C",
"K  c #75504B",
"L  c #76514B",
"P  c #75504C",
"I  c #76504C",
"U  c #76514C",
"Y  c #77514C",
"T  c #78514C",
"R  c #78524C",
"E  c #79524C",
"W  c #78524D",
"Q  c #79524D",
"!  c #7A524C",
"~  c #7A524D",
"^  c #7B534D",
"/  c #79524E",
"(  c #78524F",
")  c #7A534E",
"_  c #7B534E",
"`  c #7A534F",
"'  c #7C534E",
"]  c #7C544E",
"[  c #7C544F",
"{  c #7D544F",
"}  c #7E554F",
"|  c #77584A",
" . c #705654",
".. c #785352",
"X. c #767678",
"o. c #8B5E4A",
"O. c #815651",
"+. c #825753",
"@. c #835852",
"#. c #825853",
"$. c #845852",
"%. c #845853",
"&. c #855953",
"*. c #865953",
"=. c #825854",
"-. c #825855",
";. c #835855",
":. c #835955",
">. c #845955",
",. c #865954",
"<. c #875A54",
"1. c #865A55",
"2. c #895B54",
"3. c #8C5C56",
"4. c #8C5D56",
"5. c #8D5D56",
"6. c #8D5D57",
"7. c #8E5D56",
"8. c #8F5E57",
"9. c #8E5E58",
"0. c #8F5E58",
"q. c #905E57",
"w. c #905E58",
"e. c #93605A",
"r. c #946059",
"t. c #A77E5D",
"y. c #8F7772",
"u. c #B19D00",
"i. c #979799",
"p. c #A48D87",
"a. c #B7A099",
"s. c #B7B7BB",
"d. c #D2D2D6",
/* pixels */
"- d A ! T Y Y Y Y T ! Z e = < 4 ; s A ! T Y Y Y Y T ! Z e = < 7 ",
"d j F E T Y Y Y Y T E J               E T Y Y Y Y T E J B f a 6 ",
"A F P T Y Y Y Y Y Y     x x X.X.X.x x     Y Y Y Y Y L ) +...h , ",
"! E T Y Y Y Y Y Y   x X.X.i.i.i.i.i.X.X.x   Y Y Y U K } q.1.z ; ",
"T T Y Y Y Y Y Y   x X.i.i.i.s.s.s.i.i.i.X.x   Y Y U K { 7.:.l : ",
"Y Y Y Y Y Y Y   x X.i.i.i.s.s.s.s.s.i.i.i.X.x   Y U K { 5.=.k : ",
"Y Y Y Y Y Y   x X.i.i.i.s.s.s.s.s.s.s.i.i.i.X.x   U K { 5.=.k : ",
"Y Y Y Y Y Y   X.X.i.i.i.s.s.s.s.s.s.s.i.i.i.X.X.  U K ] 5.=.k : ",
"Y Y Y Y Y   x X.i.i.i.i.i.s.s.s.s.s.i.i.i.i.i.X.x   H ' i.-.l : ",
"T Y Y U U   x X.i.i.i.i.i.i.i.i.i.i.i.i.i.i.i.X.x   Q i.i.;.l : ",
"Q W I K K   x X.i.i.i.i.i.i.i.i.i.i.i.i.i.i.i.X.x   i.d.i.>.l : ",
"S G ) {   X.  x X.i.i.i.i.i.i.i.i.i.i.i.i.i.X.x   X.  d.i.( g , ",
"* M @.0.  X.  x X.X.i.i.i.i.i.i.i.i.i.i.i.X.X.x   X.  d.i.y w 6 ",
"o u ) ,.  x   x x X.X.X.i.i.i.i.i.i.i.X.X.X.x x   x   d.i.+ 2 p ",
"3 0 u v       x x x X.X.X.X.X.X.X.X.X.X.X.x x x       d.i.2 7 7 ",
"1 8 r % &   x x x x x x X.X.X.X.X.X.X.x x x x x x   d.d.i.1 6 7 ",
"> e C D S   x X.x x x x x x x x x x x x x x x X.x   d.i.9 = < 7 ",
"s j J ^ ~ Q   x X.X.x x x x x x x x x x x X.X.x   d.d.i.V f a 6 ",
"A F U R T   x     x X.X.X.i.i.i.i.i.X.X.X.x     x   d.i.#...h , ",
"! E T Y   X.i.s.s.      x x x x x x x       s.s.i.X.  i.q.1.z ; ",
"T T Y Y   x i.i.s.x   x X.X.X.X.X.X.X.x   x s.i.i.x   { 7.:.l : ",
"Y Y Y Y Y   x x     X.X.i.i.i.i.i.i.i.X.X.    x x   i.{ 5.=.k : ",
"Y Y Y Y   X.s.i.X.  x X.X.i.i.i.i.i.X.X.x   X.i.s.X.  . 5.=.k : ",
"Y Y Y Y   i.i.X.x     x x X.X.X.X.X.x x     x X.i.i.  u.. =.k : ",
"Y Y Y Y $ t.t.x     x       x x x       x     x t.t.$ . 3.-.l : ",
"T Y Y U $ o.o.    x X.s.y.p.a.p.a.p.y.s.X.x     o.o.$ O.8.;.l : ",
"Q W I K K $ $ K   x i.s.y. . . . . .y.s.i.x   K $ $ $.6.r.>.l : ",
"S G ) { { { { [ _   i. .p.y.$ $ $ y.p. .i.  { [ _ O.6.w.2.( g , ",
"* M @.0.6.4.4.3.3.9.  x X.X.      X.X.x   4.4.3.3.9.e.2.N y w 6 ",
"o u ` <.&.%.%.%.%.&.$ o.t.| $ 3 $ | t.o.$ %.%.%.%.&.*./ t O 2 p ",
"3 q m n b b b b b b $ t.t.o.$ 7 $ o.t.t.$ b b b b b n c 0 2 7 7 ",
"i 5 # X @ @ @ @ @ @ X $ $ $ 7 7 i $ $ $ @ @ @ @ @ @ X # 5 i 7 7 "
};
