/* XPM */
static char *result[] = {
/* columns rows colors chars-per-pixel */
"32 32 84 1 ",
"  c #060608",
". c #412320",
"X c #59302C",
"o c #5C322D",
"O c #6D3B36",
"+ c #303849",
"@ c #30394A",
"# c #31394A",
"$ c #333C4E",
"% c #353E50",
"& c #363F51",
"* c #374054",
"= c #374154",
"- c #394356",
"; c #394357",
": c #3B4558",
"> c #3B465A",
", c #3C4659",
"< c #3C465A",
"1 c #3D475B",
"2 c #3E475B",
"3 c #3C475C",
"4 c #3E485C",
"5 c #3F495D",
"6 c #3F495E",
"7 c #3F4B60",
"8 c #404A5E",
"9 c #414B5F",
"0 c gray36",
"q c #414B60",
"w c #414C60",
"e c #404C61",
"r c #414C61",
"t c #414C62",
"y c #414D62",
"u c #434E64",
"i c #434F65",
"p c #445167",
"a c #455169",
"s c #465269",
"d c #47546B",
"f c #4A566D",
"g c #4A576E",
"h c #4D5A73",
"j c #4E5B74",
"k c #4E5C78",
"l c #4F5C78",
"z c #515E7B",
"x c #53617D",
"c c #53627E",
"v c #54627E",
"b c #9A544C",
"n c #5C6A85",
"m c #5D6B86",
"M c #5E6C89",
"N c #616F8C",
"B c #63728F",
"V c #64728F",
"C c #617191",
"Z c #627292",
"A c #647390",
"S c #657391",
"D c #657491",
"F c #667592",
"G c #667697",
"H c #677798",
"J c #6A7998",
"K c #6B7B9A",
"L c #6C7C9B",
"P c #6F7F9F",
"I c #6F80A1",
"U c #7080A1",
"Y c #7181A2",
"T c #7282A4",
"R c #7384A5",
"E c #7485A7",
"W c #7585A7",
"Q c #7686A8",
"! c #7788AA",
"~ c gray55",
"^ c #8895AF",
"/ c gray68",
"( c #A6B0C4",
") c white",
/* pixels */
"p7%+@########@+%rr%+@###########",
"iurqwrrrrrrrrwqruurqwrrrrrrrrwqq",
"yfmFDSSSSSSSSDFnddnFDSSSSSSSSAVB",
"ehK!TIUUIIUUIT!JggJ!TIUUIIUUIYRW",
"tjLEHCZZCCZZC^^^^^^EHCZZCCZZCGYQ",
"3snNvklzcczlk^^^^^^NvklzcczlkxMB",
"$&:<;=*^^^^^i^^^^^^i^^^^^a>*=-,1",
"9841454^^^^^i((((((i^^^^^t645421",
"i^^^^^i^^^^^iPPPPPPi^^^^^i^^^^^i",
"i^^^^^i(((((iPPPPPPi(((((i^^^^^i",
"i^^^^^iPPPPPiPPPPPPiPPPPPi^^^^^i",
"i(((((iPPPPPiPPPPPPiPPPPPi(((((i",
"iPPPPPiPPPPPX.XXXX.XPPPPPiPPPPPi",
"iPPPPPXXX.XXX.XXXX.XXX.XXXPPPPPi",
"iPPPPPXXX.OOOoOOOOoOOO.XXXPPPPPi",
"iiiiiiOOOoOOOoOOOOoOOOoOOOiiiiii",
"i(((((~~/oOOOo     OOOoOOO(((((i",
"iPPPPP~//oOOO 0//)) OOoOOOPPPPPi",
"iPPPPPOOOoOO 0/   0) OoOOOPPPPPi",
"iPPPPPOOOoOO 0/   0) OoOOOPPPPPi",
"iPPPPPOOOoO 0///////) oO/OPPPPPi",
"iiiiiiOOOoO 0///////) oO/Oiiiiii",
"i(((((OOOoO 0///  //) oO/O(((((i",
"iPPPPPOOOoO 0///  /// oO/OPPPPPi",
"iPPPPPOOOoO 0///  /// oO/OPPPPPi",
"iPPPPPOOOoO 0//////// oOOOPPPPPi",
"iPPPPPOOOoO 0//////// oOOOPPPPPi",
"iiiiiiOOOoOO         OoOOOiiiiii",
"i(((((~~/oOOOoOOOOoOOOoOOO(((((i",
"iPPPPP~//oOOOoOOOOoOOOoOOOPPPPPi",
"iPPPPPOOOoOOOoOOOOoOOOoOOOPPPPPi",
"iPPPPPbbbobbbobbbbobbbobbbPPPPPi"
};
