/* XPM */
static char *result[] = {
/* columns rows colors chars-per-pixel */
"32 32 116 2 ",
"   c #14182E",
".  c #1C1B2D",
"X  c #161A30",
"o  c #191D33",
"O  c #221E2C",
"+  c #2D1C32",
"@  c #331D33",
"#  c #391E34",
"$  c #1D2136",
"%  c #1E2239",
"&  c #22263C",
"*  c #25293E",
"=  c #2D2C3C",
"-  c #431F35",
";  c #4D3637",
":  c #543E3C",
">  c #5A3E3C",
",  c #75273D",
"<  c #5B423E",
"1  c #60423F",
"2  c #262A41",
"3  c #292D43",
"4  c #2C3047",
"5  c #2E324C",
"6  c #303347",
"7  c #383746",
"8  c #34384C",
"9  c #2E3350",
"0  c #323754",
"q  c #373B52",
"w  c #393D55",
"e  c #4D3E46",
"r  c #4F3F48",
"t  c #503F45",
"y  c #3E4255",
"u  c #3F435A",
"i  c #524046",
"p  c #5D4442",
"a  c #534148",
"s  c #5D464A",
"d  c #40445C",
"f  c #44485F",
"g  c #484B5E",
"h  c #634643",
"j  c #694744",
"k  c #6C4A46",
"l  c #63494B",
"z  c #6D4C4A",
"x  c #704C47",
"c  c #724E4A",
"v  c #77514C",
"b  c #7A524D",
"n  c #7A5451",
"m  c #464A62",
"M  c #4D5169",
"N  c #51556D",
"B  c #5C6078",
"V  c #616475",
"C  c #62667F",
"Z  c #AD2F45",
"A  c #80554F",
"S  c #815652",
"D  c #845854",
"F  c #8C5D56",
"G  c #8F5E58",
"H  c #905E57",
"J  c #94605A",
"K  c #936376",
"L  c #696D86",
"P  c #707384",
"I  c #787A8B",
"U  c #676E98",
"Y  c #686F99",
"T  c #757CA2",
"R  c #996E81",
"E  c #BF7081",
"W  c #C37C8C",
"Q  c #7E83A5",
"!  c #7E84A8",
"~  c #81859D",
"^  c #868AA1",
"/  c #898CA6",
"(  c #8086AA",
")  c #8489AC",
"_  c #8A8EA8",
"`  c #8E92AB",
"'  c #9290A6",
"]  c #989AA7",
"[  c #9894A9",
"{  c #9499B8",
"}  c #9FA1AD",
"|  c #A5A7B4",
" . c #A8AAB6",
".. c #A0A4BF",
"X. c #B2A2B6",
"o. c #AEB0BB",
"O. c #B2B4BF",
"+. c #A3A7C2",
"@. c #A6AAC4",
"#. c #ADB0C6",
"$. c #AFB3C9",
"%. c #BABCC6",
"&. c #B2B5CB",
"*. c #B6B9CE",
"=. c #B8BBCF",
"-. c #BABDD1",
";. c #D3B5C1",
":. c #BDC0D2",
">. c #C1C4D5",
",. c #CBCCD5",
"<. c #CACCD9",
"1. c #CFD1DD",
"2. c #D2D4DE",
"3. c #D3D5E1",
"4. c #DCDDE5",
"5. c #DFE0E8",
/* pixels */
"e a c b b b v v v v b c a e i e e a c b v v v v v v b x p e t r ",
"a l c v c b v v v v b c l s a i a s c b v v v v v v b c l a a t ",
"c c v v v v v v v v v <                 : v v v v v v b S n s e ",
"b v b v v b v v v v z < X X X X X   o X : c v v v v v A G D l e ",
"v v b v v v v v v h   w &.5.5.5.5.5.5.-.u   1 v v v v n G D s r ",
"b v v v v v v b j > & u =.5.5.5.5.5.5.-.m % : v v v v b F S s r ",
"v v v v v b v k   3 +.$.5.5.5.5.5.5.5.5.&.+.5 j v v v b F D s r ",
"v v v v v v b k   2 +.$.5.5.5.5.5.5.5.5.&.+.4 j v v v n F S s e ",
"v v v b v v v z   * ..&.5.5.5.5.5.5.5.5.&.+.4 j v v c b G D s r ",
"v v v v v v v x   * { ..3.5.5.5.5.5.5.2.+.{ 3 j v v b S G S s e ",
"b b c v v v v x   % Y T &.5.5.5.5.5.5.*.T Y & j c b D G J D s r ",
"c v b b A n b b   $ ! Q ~ <.3.5.5.3.<./ Q ( * x b S G H F v s e ",
"< j D G G F F D   % +._ q +.-.5.5.>.+.d ~ +.2 n G H J D k p a t ",
"< p b D D D D n   & +./ 2 B ~ :.>.~ B 3 ~ +.2 v D D D b p e t i ",
"e i p h 1 h h <   & +._     m +.+.N     ~ +.2 < h h h p a e i t ",
"r i p < < < < <   & +./ + , K <.<.R , @ ~ +.2 ; < < < < i r i i ",
"e a k c x c c k   & +./ # Z E 5.5.W Z - ~ ..3 j x c v j i e i i ",
"a s v b b b v b < ; w M ' ;.X.) ) X.;.[ N w ; b b b b v l s i i ",
"c c v v v b v v v j   8 *.5.*.U U #.5.*.w   1 v v v v b n n a i ",
"b b v v v v v x O O   y | 6 P 1.1.I 5 } g   O j v v v b J D s e ",
"b v v v v v v k       y  .  V 5.5.C   } g     j v v v n G D s a ",
"v v b v v v x = ,.,.,.} &   X % & $   & ] 1.,.7 . z v b G n s i ",
"v v v v v v x 2 5.5.5.o.      X         | 5.5.8   k v n J n s i ",
"v v v v c . = <.@.` $ u $.4.#.U U o.4.&.f $ ^ <.2.= X v G n s e ",
"v v v v v   & 4.+./   w *.5.$.Y U #.5.=.u   ^ 2.5.=   v F D s e ",
"v b v v c   & 5.5.%.    9 U ! +.+.) Y 0     O.5.5.4   b F D s e ",
"b b v v c   * 5.5.%.    5 U ! +.+.) Y 0     O.5.5.4   D J D s i ",
"c c b b b b x         w +.+.L X X B +.+.d         x D J D v s e ",
"< k D F J G b         y +...L   X C +.+.u         b J F x p i i ",
"< p b D D D D D D D D b p : e e i < b D D D D D D D D b p : i a ",
"i i p h h 1 h h p p p p i i i i i i h h p p h p j h h p i i i i ",
"i i : < < : < < < : < < i i e i i i < < < : < : < < : : i e i a "
};
