/* XPM */
static char *result[] = {
/* columns rows colors chars-per-pixel */
"32 32 195 2 ",
"   c black",
".  c #010100",
"X  c #020201",
"o  c #030201",
"O  c #030302",
"+  c #120B02",
"@  c #160F03",
"#  c #150E0D",
"$  c #1D1403",
"%  c #1B1607",
"&  c #231904",
"*  c #261B05",
"=  c #28170E",
"-  c #2C240C",
";  c #2A2023",
":  c #3B2826",
">  c #3E2A27",
",  c #5A3007",
"<  c #412C2A",
"1  c #472E2B",
"2  c #4E3330",
"3  c #4C3A3F",
"4  c #563F3B",
"5  c #523E3D",
"6  c #503D3E",
"7  c #503D3F",
"8  c #513E3F",
"9  c #553F3C",
"0  c #543F3F",
"q  c #66480C",
"w  c #5B423F",
"e  c #5C423E",
"r  c #5C423F",
"t  c #5D433F",
"y  c #63433F",
"u  c #4B3D46",
"i  c #4B3E46",
"p  c #4C3E46",
"a  c #4D3E46",
"s  c #4C3E47",
"d  c #4E3E46",
"f  c #4F3F47",
"g  c #4F3F48",
"h  c #503F45",
"j  c #513F45",
"k  c #503F47",
"l  c #514045",
"z  c #524045",
"x  c #514046",
"c  c #504047",
"v  c #514047",
"b  c #524046",
"n  c #534046",
"m  c #534146",
"M  c #554144",
"N  c #564144",
"B  c #544146",
"V  c #544147",
"C  c #554147",
"Z  c #554247",
"A  c #594240",
"S  c #594241",
"D  c #5C4340",
"F  c #5D4441",
"G  c #5D4442",
"H  c #5E4442",
"J  c #5F4542",
"K  c #5F4543",
"L  c #504048",
"P  c #514048",
"I  c #524148",
"U  c #534148",
"Y  c #564248",
"T  c #574248",
"R  c #584449",
"E  c #594449",
"W  c #5B4549",
"Q  c #5B454A",
"!  c #5F4649",
"~  c #5C454A",
"^  c #5E464A",
"/  c #5E464B",
"(  c #5F474B",
")  c #604543",
"_  c #624642",
"`  c #634642",
"'  c #654440",
"]  c #674641",
"[  c #644743",
"{  c #654743",
"}  c #604544",
"|  c #694642",
" . c #694945",
".. c #6B4844",
"X. c #6A4A44",
"o. c #6E4A46",
"O. c #6F4C47",
"+. c #604749",
"@. c #63494B",
"#. c #64494B",
"$. c #674A4A",
"%. c #684A48",
"&. c #694A48",
"*. c #6E4D4B",
"=. c #6F4D4B",
"-. c #704D49",
";. c #724E49",
":. c #704E4B",
">. c #714E4B",
",. c #734F4A",
"<. c #724E4B",
"1. c #734F4B",
"2. c #764E48",
"3. c #744F4B",
"4. c #724F4C",
"5. c #734F4C",
"6. c #75504B",
"7. c #76504A",
"8. c #77504B",
"9. c #76514B",
"0. c #74504C",
"q. c #75504C",
"w. c #76504C",
"e. c #76514C",
"r. c #77514C",
"t. c #77524F",
"y. c #79504B",
"u. c #79514B",
"i. c #78514C",
"p. c #78524C",
"a. c #79524C",
"s. c #78524D",
"d. c #79524D",
"f. c #7A524C",
"g. c #7A524D",
"h. c #7B534D",
"j. c #79524E",
"k. c #78524F",
"l. c #7A534E",
"z. c #7B534E",
"x. c #7A534F",
"c. c #7C534D",
"v. c #7C534E",
"b. c #7C544E",
"n. c #7C544F",
"m. c #7D544F",
"M. c #7E554F",
"N. c #775252",
"B. c #785352",
"V. c #914D0B",
"C. c #B25F0E",
"Z. c #B35F0E",
"A. c #B6640F",
"S. c #A87614",
"D. c #BF7713",
"F. c #825550",
"G. c #815651",
"H. c #815752",
"J. c #825753",
"K. c #835852",
"L. c #825853",
"P. c #845852",
"I. c #845853",
"U. c #855953",
"Y. c #865953",
"T. c #815854",
"R. c #825854",
"E. c #825855",
"W. c #835855",
"Q. c #835955",
"!. c #845955",
"~. c #855955",
"^. c #865954",
"/. c #875A54",
"(. c #865A55",
"). c #895B54",
"_. c #8B5C56",
"`. c #8C5C56",
"'. c #8C5D56",
"]. c #8D5D56",
"[. c #8D5D57",
"{. c #8E5D56",
"}. c #8F5E57",
"|. c #8E5E58",
" X c #8F5E58",
".X c #905E57",
"XX c #905E58",
"oX c #93605A",
"OX c #946059",
"+X c #C78716",
"@X c #C98E18",
"#X c #CB8F18",
"$X c #E5B02E",
"%X c #FED045",
"&X c #FFD145",
/* pixels */
"i T =.f.i.r.r.r.r.i.f.*.Z u f k p Y =.f.i.r.r.r.r.i.f.*.Z u f v ",
"T ! >.a.i.r.r.r.r.i.a.4.@.E I v Z ! >.a.i.r.r.r.r.i.a.4.@.E U c ",
"=.>.q.i.r.r.r.r.r.r.9.l.J.N.E V $.1.e.i.r.r.r.r.r.r.9.l.J.B.Q d ",
"f.a.i.r.r.r.r.r.r.e.6.M..X~.~ C :.c.p.r.r.r.r.r.r.e.6.M..X(.( p ",
"i.i.r.r.r.r.r.r.r.e.6.m.{.W.Q C =.f.i.r.r.r.r.r.r.e.6.m.{.Q./ a ",
"r.r.r.r.r.r.r.r.r.e.6.m.].T.Q V *.f.i.r.r.r.r.r.r.e.6.m.].R.^ a ",
"r.r.r.r.r.r.r.r.r.e.6.m.].T.Q V *.f.i.r.r.r.r.r.r.e.6.m.].R.^ a ",
"r.r.r.r.r.r.r.r.r.e.6.b.].T.      f.i.r.r.r.r.r.r.e.6.b.].R.^ a ",
"r.r.r.r.r.r.r.r.r.w.3.v._.  &X&X&X. y r.r.r.r.r.r.w.3.v.`.E./ a ",
"i.r.r.e.e.e.e.e.w.r.d.| O %X#X  #X@X* : e.e.e.e.w.r.d.G.}.W./ a ",
"d.s.w.6.6.6.6.6.3.d.P.y.  &X@ 3 & #X$ : 6.6.6.6.3.d.P.[.OX!./ a ",
"-.,.l.m.m.m.m.n.z.G.[.F.  $X, ; q D.+ > m.m.m.n.z.G.[.XX).k.W d ",
"t  .K. X[.'.'.`.`.|.oX2.# S.A.% +XV.= 2 [.'.'.`.`.|.oX).O.G B c ",
"5 K l.^.I.K.K.K.K.I.U.s.D   #X&XC.o y ^.I.K.K.K.K.I.U.s.F 7 h P ",
"j M K ` _ _ _ _ _ _ ` H M h   Z.  M K ` _ _ _ _ _ _ ` H M h v v ",
"g b S e r w w w w r r S x g   #X  b S e r w w w w r r S x g c v ",
"s Z &.;.-.-.-.-.-.-.;.%.m u   #X  Z &.;.-.-.-.-.-.-.;.%.m u f v ",
"Y ! 4.h.g.d.d.d.d.g.h.0.#.    #X  +.5.h.g.d.d.d.d.g.h.0.#.E U c ",
"=.>.e.p.i.i.i.i.i.r.r.z.H.  &X#X  <.r.p.i.i.i.i.i.r.r.z.L.B.Q d ",
"f.a.i.r.r.r.r.r.r.e.6.M..Xo.% #X  c.p.r.r.r.r.r.r.e.6.M..X(.( p ",
"i.i.r.r.r.r.r.r.r.e.6.8.1 <   D.  f.i.r.r.r.r.r.r.e.6.m.{.Q./ a ",
"r.r.r.r.r.r.r.r.r.e.6...  - @ A.  f.i.r.r.r.r.r.r.e.6.m.].R.^ a ",
"r.r.r.r.r.r.r.r.r.e.6.' X %X#X#X  u.i.r.r.r.r.r.r.e.6.m.].R.^ a ",
"r.r.r.r.r.r.r.r.r.e.6.]       Z.  f.i.r.r.r.r.r.r.e.6.b.].R.^ a ",
"r.r.r.r.r.r.r.r.r.w.3.v.`.T.      f.i.r.r.r.r.r.r.w.3.v.`.E./ a ",
"i.r.r.e.e.e.e.e.w.r.d.G.}.E.Q C *.g.i.e.e.e.e.e.w.r.d.G.}.W./ a ",
"d.s.w.6.6.6.6.6.3.d.P.[.OXQ.Q C :.h.r.6.6.6.6.6.3.d.P.[.OX!./ a ",
"-.,.l.m.m.m.m.n.z.G.[.XX).t.R B &.7.z.m.m.m.m.n.z.G.[.XX).k.W d ",
"t  .K. X[.'.'.`.`.|.oX).O.G n z A X.K. X[.'.'.`.`.|.oX).O.G B c ",
"5 K x./.U.I.I.I.I.U.Y.j.F 7 h j 8 J z./.U.I.I.I.I.U.Y.j.F 6 h P ",
"j N } { [ [ [ [ [ [ { ) M h v v h N } { [ [ [ [ [ [ { ) M h v v ",
"L l 0 4 9 9 9 9 9 9 4 0 l L v v L l 0 4 9 9 9 9 9 9 4 0 l L v v "
};
