/* XPM */
static char *result[] = {
/* columns rows colors chars-per-pixel */
"32 32 132 2 ",
"   c #2E1E22",
".  c #323234",
"X  c #4C3400",
"o  c #563F3B",
"O  c #523E3D",
"+  c #503D3E",
"@  c #503D3F",
"#  c #513E3F",
"$  c #553F3C",
"%  c #543F3F",
"&  c #534721",
"*  c #5D433F",
"=  c #4B3D46",
"-  c #4B3E46",
";  c #4C3E46",
":  c #4D3E46",
">  c #4C3E47",
",  c #4E3E46",
"<  c #4F3F47",
"1  c #4F3F48",
"2  c #503F45",
"3  c #513F45",
"4  c #503F47",
"5  c #514045",
"6  c #514046",
"7  c #504047",
"8  c #514047",
"9  c #524046",
"0  c #534146",
"q  c #554144",
"w  c #564144",
"e  c #544146",
"r  c #554247",
"t  c #594241",
"y  c #5D4441",
"u  c #5D4442",
"i  c #5F4543",
"p  c #504048",
"a  c #514048",
"s  c #534148",
"d  c #564248",
"f  c #574248",
"g  c #594449",
"h  c #5B4549",
"j  c #5B454A",
"k  c #5F4649",
"l  c #5E464A",
"z  c #5E464B",
"x  c #5F474B",
"c  c #545456",
"v  c #604543",
"b  c #644743",
"n  c #654743",
"m  c #604544",
"M  c #694945",
"N  c #6F4C47",
"B  c #63494B",
"V  c #64494B",
"C  c #684A48",
"Z  c #6E4D4B",
"A  c #6F4D4B",
"S  c #704D49",
"D  c #714E4B",
"F  c #734F4A",
"G  c #744F4B",
"H  c #724F4C",
"J  c #75504B",
"K  c #76514B",
"L  c #74504C",
"P  c #75504C",
"I  c #76504C",
"U  c #76514C",
"Y  c #77514C",
"T  c #78514C",
"R  c #79524C",
"E  c #78524D",
"W  c #79524D",
"Q  c #7A524C",
"!  c #7B534D",
"~  c #79524E",
"^  c #78524F",
"/  c #7A534E",
"(  c #7B534E",
")  c #7A534F",
"_  c #7C534E",
"`  c #7C544E",
"'  c #7C544F",
"]  c #7D544F",
"[  c #7E554F",
"{  c #77584A",
"}  c #785352",
"|  c #767678",
" . c #806800",
".. c #8B5E4A",
"X. c #815651",
"o. c #825753",
"O. c #835852",
"+. c #825853",
"@. c #845853",
"#. c #855953",
"$. c #865953",
"%. c #825854",
"&. c #825855",
"*. c #835855",
"=. c #835955",
"-. c #845955",
";. c #875A54",
":. c #865A55",
">. c #895B54",
",. c #8C5C56",
"<. c #8C5D56",
"1. c #8D5D56",
"2. c #8D5D57",
"3. c #8E5D56",
"4. c #8F5E57",
"5. c #8E5E58",
"6. c #8F5E58",
"7. c #905E57",
"8. c #905E58",
"9. c #9D704C",
"0. c #93605A",
"q. c #946059",
"w. c #A77E5D",
"e. c #B19D00",
"r. c #CBB900",
"t. c #D7906E",
"y. c #979799",
"u. c #B7B7BB",
"i. c #EEBE93",
"p. c #FFE1AF",
"a. c #D2D2D6",
"s. c white",
/* pixels */
"- f A Q T Y Y Y Y T Q Z r = < 4 ; d A Q T Y Y Y Y T Q Z r = < 8 ",
"f k D R T Y Y Y Y T R H B . . . . . . . T Y Y Y Y T R H B g s 7 ",
"A D P T Y Y Y Y Y Y K . . c c | | | c c . . Y Y Y Y K / o.} j , ",
"Q R T Y Y Y Y Y Y U . c | | y.y.y.y.y.| | c . Y Y U J [ 7.:.x ; ",
"T T Y Y Y Y Y Y Y . c | y.y.y.u.u.u.y.y.y.| c . Y U J ] 3.=.z : ",
"Y Y Y Y Y Y Y Y . c | y.y.y.u.u.u.u.u.y.y.y.| c . U J ] 1.%.l : ",
"Y Y Y Y Y Y Y . c | y.y.y.u.u.u.u.u.u.u.y.y.y.| c . J ] 1.%.l : ",
"Y Y Y Y Y Y Y . | | y.y.y.u.u.u.u.u.u.u.y.y.y.| | . J ` 1.%.l : ",
"Y Y Y Y Y Y . c | y.y.y.y.y.u.u.u.u.u.y.y.y.y.y.| c . _ ,.&.z : ",
"T Y y.U U U . c | . . c | | y.y.y.y.y.| | c . . | c . X.4.*.z : ",
"W E y.y.J J . c . c y.. . c c c c c c c . . y.c . c . 2.q.-.z : ",
"S F y.s.y.. | . c | | y.y.u.u.u.u.u.u.u.y.y.| | c . | . >.^ h , ",
"* M y.s.u.. | . c c   c | | y.y.y.y.y.| | c   c c . | . N u e 7 ",
"O i y.s.s.y.c . c y.c                       c y.c . c . y @ 2 a ",
"3 q y.s.s.y.. . c | y.c                   c y.| c . . . q 2 8 8 ",
"1 9 y.a.s.y.. . . c | y.y.u.u.u.u.u.u.u.y.y.| c . . . t 6 1 7 8 ",
"> r y.a.s.u.. c c . . c | | y.y.y.y.y.| | c . . c c . C 0 = < 8 ",
"d k H y.s.s.y.. c | . t.i.p.p.p.p.p.p.p.i.t.. | c . ! L V g s 7 ",
"A D U y.s.s.y.c . . . & 9.t.i.i.i.i.i.t.9.& . . . c . ( +.} j , ",
"Q R T y.a.s.y.y.u.u.| c & & & & & & & & & c | u.u.y.| . 7.:.x ; ",
"T T Y y.a.s.u.y.y.u.c . c | y.| | | y.| c . c u.y.y.c . 3.=.z : ",
"Y Y Y Y y.s.s.X X X . | y.u.u.y.y.y.u.u.y.| . . c c . ] 1.%.l : ",
"Y Y Y Y y.s.s. .r.r.X | y.y.| c c c | y.y.| . | y.u.| . 1.%.l : ",
"Y Y Y X  .e.r.r. .X . . . c c | y.| c c . . . c | y.y.. 1.%.l : ",
"Y Y X e.r.r. . .X . . c c . . c c c . . c c . . c w.w.& ,.&.z : ",
"T Y Y X X X ..... . c | u.| c u.u.u.c | u.| c . . ....& 4.*.z : ",
"W E I J J J & & G . c y.u.. | y.u.y.| . u.y.c . G & & 2.q.-.z : ",
"S F / ] ] ] ] ' ( X.. y.. c . | y.| . c . y.. ' ( X.2.8.>.^ h , ",
"* M O.6.2.<.<.,.,.5.0.. c u.| . . . | u.c . <.,.,.5.0.>.N u e 7 ",
"O i ) ;.#.@.@.@.@.#.$.& ....{ & # & { ....& @.@.@.#.$.~ y + 2 a ",
"3 w m n b b b b b b n & w.w...& 2 & ..w.w.& b b b b n v q 2 8 8 ",
"p 5 % o $ $ $ $ $ $ o % & & & 8 p 5 & & & $ $ $ $ $ o % 5 p 8 8 "
};
