/* XPM */
static char *result[] = {
/* columns rows colors chars-per-pixel */
"32 32 226 2 ",
"   c #202E35",
".  c #222E35",
"X  c #232F35",
"o  c #202F36",
"O  c #212F36",
"+  c #212F37",
"@  c #222F36",
"#  c #222F38",
"$  c #203037",
"%  c #213037",
"&  c #223036",
"*  c #213038",
"=  c #213139",
"-  c #223038",
";  c #233038",
":  c #223138",
">  c #223139",
",  c #22313A",
"<  c #22323A",
"1  c #22333C",
"2  c #23333C",
"3  c #23343E",
"4  c #24353F",
"5  c #2D3A3F",
"6  c #4C3C3E",
"7  c #4F3C3E",
"8  c #563F3B",
"9  c #523E3D",
"0  c #503D3E",
"q  c #553F3C",
"w  c #543F3F",
"e  c #58423F",
"r  c #5C423E",
"t  c #5C423F",
"y  c #5D433F",
"u  c #243640",
"i  c #243740",
"p  c #243641",
"a  c #243741",
"s  c #253842",
"d  c #253843",
"f  c #4C3E43",
"g  c #4B3D46",
"h  c #4B3E46",
"j  c #4B3E47",
"k  c #4D3E45",
"l  c #4F3E44",
"z  c #4C3E46",
"x  c #4D3E46",
"c  c #4C3E47",
"v  c #4E3E46",
"b  c #4F3F47",
"n  c #4F3F48",
"m  c #513F42",
"M  c #513F44",
"N  c #503F45",
"B  c #513F45",
"V  c #503F46",
"C  c #503F47",
"Z  c #514045",
"A  c #504047",
"S  c #514047",
"D  c #524046",
"F  c #534146",
"G  c #554144",
"H  c #564144",
"J  c #544146",
"K  c #544147",
"L  c #554147",
"P  c #554247",
"I  c #584240",
"U  c #594241",
"Y  c #5D4441",
"T  c #5D4442",
"R  c #5F4543",
"E  c #504048",
"W  c #514048",
"Q  c #524148",
"!  c #534148",
"~  c #564248",
"^  c #574248",
"/  c #594449",
"(  c #5B4549",
")  c #5B454A",
"_  c #5F4649",
"`  c #5C454A",
"'  c #5E464A",
"]  c #5E464B",
"[  c #5F474B",
"{  c #604543",
"}  c #614643",
"|  c #624642",
" . c #634642",
".. c #644743",
"X. c #654743",
"o. c #604544",
"O. c #694945",
"+. c #694A45",
"@. c #6F4C47",
"#. c #63494B",
"$. c #64494B",
"%. c #674A4A",
"&. c #684A48",
"*. c #694A48",
"=. c #6C4B48",
"-. c #6F4E49",
";. c #6E4D4B",
":. c #6F4D4B",
">. c #704D49",
",. c #724E49",
"<. c #704D4A",
"1. c #714E4A",
"2. c #704E4B",
"3. c #714E4B",
"4. c #714F4B",
"5. c #734F4A",
"6. c #724E4B",
"7. c #724F4B",
"8. c #734F4B",
"9. c #744F4B",
"0. c #724F4C",
"q. c #744F4C",
"w. c #75504B",
"e. c #76514B",
"r. c #74504C",
"t. c #75504C",
"y. c #76504C",
"u. c #76514C",
"i. c #77514C",
"p. c #76504D",
"a. c #77514D",
"s. c #77514E",
"d. c #78514C",
"f. c #78524C",
"g. c #79524C",
"h. c #78524D",
"j. c #79524D",
"k. c #7A524C",
"l. c #7A524D",
"z. c #7B534D",
"x. c #79524E",
"c. c #78524F",
"v. c #7A534E",
"b. c #7B534E",
"n. c #7A534F",
"m. c #7C534D",
"M. c #7C534E",
"N. c #7C544E",
"B. c #7C544F",
"V. c #7D544F",
"C. c #7E554F",
"Z. c #775252",
"A. c #785352",
"S. c #7B5551",
"D. c #7B5553",
"F. c #7C5553",
"G. c #7D5652",
"H. c #815651",
"J. c #805752",
"K. c #825753",
"L. c #815851",
"P. c #835852",
"I. c #825853",
"U. c #845852",
"Y. c #845853",
"T. c #855953",
"R. c #865953",
"E. c #825854",
"W. c #825855",
"Q. c #835855",
"!. c #835955",
"~. c #845954",
"^. c #845955",
"/. c #855955",
"(. c #865954",
"). c #875A54",
"_. c #865A55",
"`. c #875A55",
"'. c #895B54",
"]. c #8C5C56",
"[. c #8C5D56",
"{. c #8D5D56",
"}. c #8D5D57",
"|. c #8E5D56",
" X c #8F5E57",
".X c #8E5E58",
"XX c #8F5E58",
"oX c #905E57",
"OX c #905E58",
"+X c #93605A",
"@X c #946059",
"#X c #41799B",
"$X c #407A9D",
"%X c #427B9D",
"&X c #407A9E",
"*X c #427B9E",
"=X c #427C9E",
"-X c #437C9F",
";X c #437D9F",
":X c #417CA1",
">X c #437DA0",
",X c #447EA2",
"<X c #9A2890",
"1X c #4981A2",
"2X c #4B8DB6",
"3X c #4C8FB8",
"4X c #4C91BA",
"5X c #4C91BB",
"6X c #4D91BB",
"7X c #4D92BB",
"8X c #4990BC",
"9X c #4D92BC",
"0X c #4D94BE",
"qX c #4E94BE",
"wX c #4E94BF",
"eX c #5597BE",
"rX c #4E95C0",
"tX c #4F96C1",
"yX c #D3B58F",
"uX c #DCB88E",
"iX c #D3B691",
"pX c #FED6A7",
"aX c #FFD7A8",
"sX c #FFDCAC",
"dX c #FDFCFC",
"fX c white",
/* pixels */
"h ^ :.k.d.i.i.i.i.d.k.;.P g b C z ~ :.k.d.i.i.i.i.d.k.;.P g b S ",
"^ _ 3.g.d.i.i.i.i.d.g.0.#./ Q S P _ 3.g.d.i.i.i.i.d.g.0.#./ ! A ",
":.3.t.d.i.i.i.i.i.i.e.v.K.Z./ K %.8.u.d.i.i.i.i.i.i.e.v.K.A.) v ",
"k.g.d.i.i.i.i.i.i.u.w.C.oX/.` L 2.m.f.i.i.i.i.i.i.u.w.C.oX_.[ z ",
"d.d.i.i.i.i.: : * * * * * * * * * * * * * * * < < 4.w.V.|.!.] x ",
"i.i.i.i.i.- + + -X-X>X,X,X* * 3X9X9X9X9X9X9X9XtXtXs -.a.{.E.' x ",
"i.i.i.i.i.- + + -X-X>X,X,X* * 3X9X9X9X9X9X9X9XtXtXs -.a.{.E.' x ",
"i.i.i.* * <X# # $X$XfX> > dXdX1X5X5X9X9X9X9X9X9X9XtXd d T.S.' x ",
"i.i.i.* * <X# # $X$XfX> > dXdX1X0X0X= = 2X9X9XtXtXu < < ~.D.] x ",
"d.i.i.* * <X# # $X$XfX> > dXdX1X0X0X= = 2X9X9XtXtXu < < `.F.] x ",
"j.h.y.* * * + + &X&XfX> > dXdX1X5X5X9X9X9X9X9X9X9XtXd d ].G.] x ",
">.5.v.* * * + + &X&XfX> > dXdX1X5X5X9X9X9X9X9X9X9XtXd d L.0.( v ",
"y O.P.XX}.% <X<X# # =X>X>X>X>X;X6X6X9X9X9X9X9X9X9XtXd d +.I J A ",
"9 R v.(.Y.% <X<X# # =X>X>X>X>X;X6X6X9X9X9X9X9X9X9XtXd d e 6 N W ",
"B G R  .| $ <X<X# # =X>X>X>X>X;X6X6X9X9X9X9X9X9X9XtXd d m f S S ",
"n D U r t * * * + + =X>X>X>X>X>X-X-XwXwX3 * * * * * < < k j A S ",
"c P *.,.>.>.>.>.- - O *X*X>X>X6X9X9X9X9XrXi i =.=.>.,.&.F g b S ",
"~ _ 0.z.l.j.j.j.- - O *X*X>X>X6X9X9X9X9XrXi i q.q.l.z.r.$./ ! A ",
":.3.u.f.d.d.d.d.d.i.@ &X&XyXyXpXaXaXaXaXsX5 5 7.7.i.i.b.I.A.) v ",
"k.g.d.i.i.i.i.i.i.u.@ &X&XyXyXpXaXaXaXaXsX5 5 4.4.u.w.C.oX_.[ z ",
"d.d.i.i.i.i.: : * * o &X&XyXyXpXaXaXaXaXsX5 5 4.4.u.w.V.|.!.] x ",
"i.i.i.i.i.i.% % 4X4X9X:X:XyXyXpXaXaXaXaXsX5 5 4.4.u.w.V.{.E.' x ",
"i.i.i.i.i.i.% % 4X4X9X:X:XyXyXpXaXaXaXaXsX5 5 4.4.u.w.V.{.E.' x ",
"i.i.i.i.i.i.: : + + =X>X>X;X;X8XiXiXuXuXeXp p 7.7.u.w.N.{.E.' x ",
"i.i.i.i.i.i.i.i.- - O %X%X7X7X9X9X9X9X9XrXi i 7.7.y.9.M.].W.] x ",
"d.i.i.u.u.u.u.u.- - O %X%X7X7X9X9X9X9X9XrXi i 7.6.i.j.H. XQ.] x ",
"j.h.y.w.w.w.w.w.9.j.@ %X%XqXqX1     #X#XwXa a 1.<.j.U.}.@X^.] x ",
">.5.v.V.V.V.V.B.b.H.@ %X%XqXqX1     #X#XwXa a s.p.H.}.OX'.c.( v ",
"y O.P.XX}.[.[.].]..X& >X>X2 2 M . X -X-X4 ).).].]..X+X'.@.T J A ",
"9 R n.).T.Y.Y.Y.Y.T.- > > 7 l B ; ; , , J.Y.Y.Y.Y.T.R.x.Y 0 N W ",
"B H o.X.............- > > l V S ; ; , , } ..........X.{ G N S S ",
"E Z w 8 q q q q q q 8 w Z E S S E Z w 8 q q q q q q 8 w Z E S S "
};
